<svg width="128" height="24" viewBox="0 0 128 24" fill="none" xmlns="http://www.w3.org/2000/svg">
<path d="M17.5742 11.252C17.3887 11.584 17.2959 12.3799 17.2959 13.6396V18.1807C17.2959 19.5576 16.583 20.7539 15.1572 21.7695C13.6826 22.834 11.876 23.3662 9.7373 23.3662C6.76855 23.3662 4.40039 22.4336 2.63281 20.5684C0.923828 18.791 0.0693359 16.5254 0.0693359 13.7715C0.0693359 10.8418 0.938477 8.40039 2.67676 6.44727C4.62012 4.25 7.2959 3.15137 10.7041 3.15137C12.9795 3.15137 14.7812 3.59082 16.1094 4.46973L15.875 8.79102L15.7578 8.82031C15.416 8.22461 14.7422 7.73633 13.7363 7.35547C12.7793 6.99414 11.7734 6.81348 10.7188 6.81348C9.67383 6.81348 8.75586 6.97949 7.96484 7.31152C7.18359 7.64355 6.51953 8.11719 5.97266 8.73242C4.82031 9.99219 4.24414 11.6572 4.24414 13.7275C4.24414 15.5342 4.75195 16.9844 5.76758 18.0781C6.7832 19.1621 8.0918 19.7041 9.69336 19.7041C11.4609 19.7041 12.6523 19.2451 13.2676 18.3271C13.4629 18.0342 13.5605 17.7021 13.5605 17.3311V14.8994H11.6709C10.6553 14.8994 10.1035 14.9873 10.0156 15.1631L9.97168 15.1484L9.83984 11.3252C10.1133 11.4033 11.2217 11.4424 13.165 11.4424H14.8936C15.9678 11.4424 16.8467 11.3691 17.5303 11.2227L17.5742 11.252ZM20.665 3.32715C21.4463 2.10645 22.2617 1.03223 23.1113 0.104492L26.2607 2.58008C25.8408 3.09766 25.4502 3.60547 25.0889 4.10352C25.0889 4.10352 24.7129 4.63574 23.9609 5.7002L20.665 3.32715ZM24.5176 21.3594C24.5176 22.1992 24.5371 22.7461 24.5762 23H20.8555V7.69238H24.5176V21.3594ZM35.46 19.7773C36.7197 19.7773 37.584 19.4502 38.0527 18.7959H38.1699L38.2139 22.1943C37.7354 22.6729 36.8467 22.9902 35.5479 23.1465C35.1963 23.1953 34.7568 23.2197 34.2295 23.2197C33.7119 23.2197 33.1455 23.1221 32.5303 22.9268C31.9248 22.7314 31.4072 22.4141 30.9775 21.9746C30.0889 21.0664 29.6445 19.6455 29.6445 17.7119V11.0615H27.4326C27.4229 10.7783 27.418 10.4902 27.418 10.1973V7.94141C27.418 7.77539 27.4229 7.69238 27.4326 7.69238H29.6445V3.51758H33.2334V7.69238H37.2617V11.0615H33.2334V17.0381C33.2334 18.5713 33.6582 19.4453 34.5078 19.6602C34.7812 19.7383 35.0986 19.7773 35.46 19.7773ZM55.4844 23.0879C54.5469 23.0293 53.4336 23 52.1445 23H51.6758V3.44434C52.2812 3.49316 52.7109 3.51758 52.9648 3.51758H53.5654C54.3369 3.51758 54.9766 3.47852 55.4844 3.40039V11.208H62.3691V3.44434C63.1797 3.49316 63.9658 3.51758 64.7275 3.51758C65.499 3.51758 65.9824 3.47852 66.1777 3.40039V23.0879C65.709 23.0293 64.7812 23 63.3945 23H62.3691V14.7236H55.4844V23.0879ZM70.4111 15.4707C70.4111 14.3281 70.6064 13.2686 70.9971 12.292C71.3877 11.3154 71.9395 10.4609 72.6523 9.72852C74.1758 8.17578 76.168 7.39941 78.6289 7.39941C80.709 7.39941 82.3789 8.08789 83.6387 9.46484C84.8789 10.793 85.499 12.4629 85.499 14.4746C85.499 15.2461 85.4404 15.7734 85.3232 16.0566C84.3467 16.3301 82.3594 16.4668 79.3613 16.4668H74.2051C74.459 17.5117 75.0498 18.3271 75.9775 18.9131C76.9053 19.4893 78.1113 19.7773 79.5957 19.7773C81.1484 19.7773 82.4814 19.499 83.5947 18.9424C83.8877 18.7959 84.1074 18.6592 84.2539 18.5322C84.2344 18.9424 84.21 19.3623 84.1807 19.792L84.0195 22.0771C83.2773 22.585 82.0762 22.9365 80.416 23.1318C79.9277 23.1904 79.459 23.2197 79.0098 23.2197C76.5293 23.2197 74.4785 22.4971 72.8574 21.0518C71.2266 19.5967 70.4111 17.7363 70.4111 15.4707ZM81.6025 13.625C81.2021 11.5254 80.0596 10.4756 78.1748 10.4756C76.6904 10.4756 75.5625 11.1152 74.791 12.3945C74.5566 12.7852 74.376 13.2148 74.249 13.6836C74.4834 13.6934 74.7715 13.7031 75.1133 13.7129H76.1973C76.5586 13.7227 76.9053 13.7275 77.2373 13.7275H78.0723C78.5703 13.7275 79.0586 13.7227 79.5371 13.7129L80.7383 13.6689C81.0605 13.6592 81.3486 13.6445 81.6025 13.625ZM92.1494 21.3594C92.1494 22.1992 92.1689 22.7461 92.208 23H88.5605V7.69238H92.1494V8.82031C92.9795 7.87305 93.8486 7.39941 94.7568 7.39941C95.6748 7.39941 96.3975 7.51172 96.9248 7.73633L96.6611 11.6768L96.6025 11.7207C96.2607 11.1152 95.5527 10.8125 94.4785 10.8125C94.0684 10.8125 93.6484 10.9541 93.2188 11.2373C92.7988 11.5107 92.4424 11.877 92.1494 12.3359V21.3594ZM102.374 8.24902C103.468 7.68262 104.586 7.39941 105.729 7.39941C106.871 7.39941 107.853 7.58008 108.673 7.94141C109.503 8.29297 110.23 8.80078 110.855 9.46484C112.213 10.9395 112.892 12.8047 112.892 15.0605C112.892 17.5312 112.154 19.5234 110.68 21.0371C109.264 22.4922 107.501 23.2197 105.392 23.2197C103.536 23.2197 102.008 22.7363 100.807 21.7695C99.459 20.6758 98.7852 19.167 98.7852 17.2432V1.20312H102.374V8.24902ZM102.374 17.1992C102.374 18.918 103.443 19.7773 105.582 19.7773C106.627 19.7773 107.506 19.3184 108.219 18.4004C108.941 17.4629 109.303 16.2959 109.303 14.8994C109.303 13.4932 108.922 12.4336 108.16 11.7207C107.477 11.0859 106.559 10.7686 105.406 10.7686C104.713 10.7686 103.946 11.0029 103.106 11.4717C102.843 11.6182 102.599 11.7793 102.374 11.9551V17.1992ZM121.271 23.2197C118.517 23.2197 116.441 22.7168 115.045 21.7109C115.064 21.418 115.094 21.0859 115.133 20.7148L115.265 19.6602C115.343 18.9668 115.392 18.5371 115.411 18.3711C115.431 18.1953 115.445 18.1025 115.455 18.0928C115.465 18.0732 115.543 18.1514 115.689 18.3271C115.836 18.4932 116.114 18.6982 116.524 18.9424C116.935 19.1865 117.408 19.4014 117.945 19.5869C119.107 19.9873 120.318 20.1875 121.578 20.1875C123.268 20.1875 124.112 19.626 124.112 18.5029C124.112 18.1416 123.951 17.873 123.629 17.6973C123.053 17.4043 122.203 17.1846 121.08 17.0381C119.967 16.8818 119.054 16.6572 118.341 16.3643C117.628 16.0713 117.047 15.7197 116.598 15.3096C115.768 14.5381 115.353 13.5273 115.353 12.2773C115.353 10.7539 115.938 9.55762 117.11 8.68848C118.272 7.8291 119.879 7.39941 121.93 7.39941C123.961 7.39941 125.694 7.97559 127.13 9.12793C127.062 9.38184 126.988 9.62598 126.91 9.86035C126.686 10.5049 126.52 10.9688 126.412 11.252L126.075 12.1162C126.056 12.1943 126.041 12.2334 126.031 12.2334C126.012 12.2334 125.934 12.1309 125.797 11.9258C125.182 11.2129 124.225 10.7441 122.926 10.5195C122.525 10.4414 122.115 10.4023 121.695 10.4023C119.918 10.4023 119.029 10.9395 119.029 12.0137C119.029 12.3848 119.215 12.668 119.586 12.8633C120.279 13.2344 121.227 13.5078 122.428 13.6836C123.639 13.8594 124.557 14.0986 125.182 14.4014C125.807 14.6943 126.31 15.0508 126.69 15.4707C127.394 16.2324 127.745 17.2432 127.745 18.5029C127.745 19.8799 127.193 20.998 126.09 21.8574C124.938 22.7656 123.331 23.2197 121.271 23.2197Z" fill="#407700"/>
</svg>
